<mxfile host="app.diagrams.net" modified="2022-12-07T11:40:48.027Z" agent="5.0 (Macintosh)" etag="P9djjTB0DXz5b6BoMKrj" version="20.6.0" type="github">
  <diagram id="-ZuSwCPAv0bj-25uYFkf" name="Page-1">
    <mxGraphModel dx="786" dy="414" grid="0" gridSize="10" guides="1" tooltips="1" connect="1" arrows="1" fold="1" page="1" pageScale="1" pageWidth="827" pageHeight="1169" math="0" shadow="0">
      <root>
        <mxCell id="0" />
        <mxCell id="1" parent="0" />
        <mxCell id="NNwjqf4ZOIXmFR74TZOm-1" value="User" style="shape=umlActor;verticalLabelPosition=bottom;verticalAlign=top;html=1;outlineConnect=0;fillColor=none;" parent="1" vertex="1">
          <mxGeometry x="170" y="160" width="30" height="60" as="geometry" />
        </mxCell>
        <mxCell id="NNwjqf4ZOIXmFR74TZOm-9" value="" style="endArrow=none;html=1;rounded=0;" parent="1" edge="1">
          <mxGeometry width="50" height="50" relative="1" as="geometry">
            <mxPoint x="190" y="160" as="sourcePoint" />
            <mxPoint x="230" y="110" as="targetPoint" />
            <Array as="points">
              <mxPoint x="270" y="60" />
            </Array>
          </mxGeometry>
        </mxCell>
        <mxCell id="NNwjqf4ZOIXmFR74TZOm-11" value="" style="group" parent="1" vertex="1" connectable="0">
          <mxGeometry x="260" y="160" width="100" height="93" as="geometry" />
        </mxCell>
        <mxCell id="Oq4BGTZ55ridDCQYKYy6-1" value="" style="group" vertex="1" connectable="0" parent="NNwjqf4ZOIXmFR74TZOm-11">
          <mxGeometry y="-60" width="100" height="60" as="geometry" />
        </mxCell>
        <mxCell id="NNwjqf4ZOIXmFR74TZOm-3" value="" style="ellipse;whiteSpace=wrap;html=1;fillColor=none;" parent="Oq4BGTZ55ridDCQYKYy6-1" vertex="1">
          <mxGeometry width="100" height="60" as="geometry" />
        </mxCell>
        <mxCell id="NNwjqf4ZOIXmFR74TZOm-7" value="Edit Booking" style="text;html=1;strokeColor=none;fillColor=none;align=center;verticalAlign=middle;whiteSpace=wrap;rounded=0;" parent="Oq4BGTZ55ridDCQYKYy6-1" vertex="1">
          <mxGeometry x="20" y="15" width="60" height="30" as="geometry" />
        </mxCell>
        <mxCell id="NNwjqf4ZOIXmFR74TZOm-10" value="" style="group" parent="NNwjqf4ZOIXmFR74TZOm-11" vertex="1" connectable="0">
          <mxGeometry y="33" width="100" height="60" as="geometry" />
        </mxCell>
        <mxCell id="NNwjqf4ZOIXmFR74TZOm-4" value="" style="ellipse;whiteSpace=wrap;html=1;fillColor=none;" parent="NNwjqf4ZOIXmFR74TZOm-10" vertex="1">
          <mxGeometry width="100" height="60" as="geometry" />
        </mxCell>
        <mxCell id="NNwjqf4ZOIXmFR74TZOm-8" value="Cancel Booking" style="text;html=1;strokeColor=none;fillColor=none;align=center;verticalAlign=middle;whiteSpace=wrap;rounded=0;" parent="NNwjqf4ZOIXmFR74TZOm-10" vertex="1">
          <mxGeometry x="20" y="15" width="60" height="30" as="geometry" />
        </mxCell>
        <mxCell id="NNwjqf4ZOIXmFR74TZOm-12" value="" style="group" parent="1" vertex="1" connectable="0">
          <mxGeometry x="260" y="10" width="100" height="60" as="geometry" />
        </mxCell>
        <mxCell id="NNwjqf4ZOIXmFR74TZOm-2" value="" style="ellipse;whiteSpace=wrap;html=1;fillColor=none;" parent="NNwjqf4ZOIXmFR74TZOm-12" vertex="1">
          <mxGeometry width="100" height="60" as="geometry" />
        </mxCell>
        <mxCell id="NNwjqf4ZOIXmFR74TZOm-6" value="Create Booking" style="text;html=1;strokeColor=none;fillColor=none;align=center;verticalAlign=middle;whiteSpace=wrap;rounded=0;" parent="NNwjqf4ZOIXmFR74TZOm-12" vertex="1">
          <mxGeometry x="20" y="15" width="60" height="30" as="geometry" />
        </mxCell>
        <mxCell id="NNwjqf4ZOIXmFR74TZOm-13" value="" style="endArrow=none;html=1;rounded=0;entryX=0.03;entryY=0.783;entryDx=0;entryDy=0;entryPerimeter=0;" parent="1" edge="1" target="NNwjqf4ZOIXmFR74TZOm-3">
          <mxGeometry width="50" height="50" relative="1" as="geometry">
            <mxPoint x="200" y="190" as="sourcePoint" />
            <mxPoint x="260" y="189.66" as="targetPoint" />
          </mxGeometry>
        </mxCell>
        <mxCell id="NNwjqf4ZOIXmFR74TZOm-14" value="" style="endArrow=none;html=1;rounded=0;exitX=0.032;exitY=0.225;exitDx=0;exitDy=0;exitPerimeter=0;" parent="1" source="NNwjqf4ZOIXmFR74TZOm-4" edge="1">
          <mxGeometry width="50" height="50" relative="1" as="geometry">
            <mxPoint x="260" y="320" as="sourcePoint" />
            <mxPoint x="204" y="201" as="targetPoint" />
          </mxGeometry>
        </mxCell>
        <mxCell id="NNwjqf4ZOIXmFR74TZOm-21" value="" style="endArrow=none;html=1;rounded=0;entryX=0.29;entryY=0;entryDx=0;entryDy=0;entryPerimeter=0;" parent="1" edge="1" target="NNwjqf4ZOIXmFR74TZOm-16">
          <mxGeometry width="50" height="50" relative="1" as="geometry">
            <mxPoint x="200" y="210" as="sourcePoint" />
            <mxPoint x="270" y="250" as="targetPoint" />
          </mxGeometry>
        </mxCell>
        <mxCell id="Oq4BGTZ55ridDCQYKYy6-2" value="" style="group" vertex="1" connectable="0" parent="1">
          <mxGeometry x="260" y="274" width="100" height="60" as="geometry" />
        </mxCell>
        <mxCell id="NNwjqf4ZOIXmFR74TZOm-16" value="" style="ellipse;whiteSpace=wrap;html=1;fillColor=none;" parent="Oq4BGTZ55ridDCQYKYy6-2" vertex="1">
          <mxGeometry width="100" height="60" as="geometry" />
        </mxCell>
        <mxCell id="NNwjqf4ZOIXmFR74TZOm-19" value="View All Bookings" style="text;html=1;strokeColor=none;fillColor=none;align=center;verticalAlign=middle;whiteSpace=wrap;rounded=0;" parent="Oq4BGTZ55ridDCQYKYy6-2" vertex="1">
          <mxGeometry x="20" y="15" width="60" height="30" as="geometry" />
        </mxCell>
        <mxCell id="Oq4BGTZ55ridDCQYKYy6-3" value="" style="ellipse;whiteSpace=wrap;html=1;" vertex="1" parent="1">
          <mxGeometry x="259" y="352" width="102" height="61" as="geometry" />
        </mxCell>
        <mxCell id="Oq4BGTZ55ridDCQYKYy6-4" value="View Bookings by Studio" style="text;html=1;strokeColor=none;fillColor=none;align=center;verticalAlign=middle;whiteSpace=wrap;rounded=0;" vertex="1" parent="1">
          <mxGeometry x="269" y="362.5" width="82" height="40" as="geometry" />
        </mxCell>
        <mxCell id="Oq4BGTZ55ridDCQYKYy6-6" value="" style="endArrow=none;html=1;rounded=0;exitX=0;exitY=0;exitDx=0;exitDy=0;" edge="1" parent="1" source="Oq4BGTZ55ridDCQYKYy6-3">
          <mxGeometry width="50" height="50" relative="1" as="geometry">
            <mxPoint x="251" y="357" as="sourcePoint" />
            <mxPoint x="202" y="245" as="targetPoint" />
          </mxGeometry>
        </mxCell>
      </root>
    </mxGraphModel>
  </diagram>
</mxfile>
